<svg version="1" xmlns="http://www.w3.org/2000/svg" width="682.667" height="682.667" viewBox="0 0 512.000000 512.000000"><path d="M26.9 69.5c-11.1 4.1-18.6 10.6-23 20-5 10.5-4.8 22.4.3 33 1.3 2.6 24.8 26.8 66.6 68.7l64.7 64.8-64.7 64.7c-41.8 42-65.3 66.2-66.6 68.8-9.4 19.3-1.6 41.7 17.8 50.9 11.9 5.6 25.1 4.6 36.2-2.8 2.9-1.9 40.2-38.5 83-81.3 60.7-60.8 78.2-78.9 80.1-82.9 3.6-7.2 5-16.1 3.8-23.1-2.5-13.5.3-10.3-83.9-94.6-42.7-42.8-80.1-79.4-82.9-81.3-2.9-1.9-7.4-4.1-10-4.9-5.9-1.8-16.6-1.8-21.4 0zM247 370.1c-7.3 1.4-14.5 5.6-19.9 11.4-6.8 7.5-9.4 14.6-9.5 25.5-.1 7.5.3 9.3 3 15 3.9 8.3 10.1 14.5 18.4 18.4l6.5 3.1h238l6.5-3.1c24.5-11.7 29.3-43.1 9.3-61.4-2.9-2.7-7.9-5.9-11.1-7.2l-5.7-2.3-115.5-.2c-63.7 0-117.5.3-120 .8z"/></svg>