<svg xmlns="http://www.w3.org/2000/svg" width="512" height="512" version="1"><path d="M268 47c-66 0-134 29-173 83-40 56-50 130-37 197 10 45 36 87 76 110 45 27 100 32 152 26 26-4 52-10 76-21v-50c-54 22-115 33-172 17-40-11-72-45-81-86-10-41-8-86 5-126 15-40 46-75 86-90s87-17 128-3c37 13 67 45 76 83 10 35 9 73-5 107-6 14-19 28-36 25-9-1-17-9-17-18-5-24 1-48 0-71l4-72c-38-11-78-18-117-9-40 10-70 46-76 86-6 30-4 62 10 89 13 24 38 40 65 41 29 3 61-9 78-34 11 25 40 39 66 34 32-4 58-29 69-58 19-44 18-94 5-138-15-50-53-92-103-109-25-9-52-13-79-13zm-3 144c11-1 21 0 31 3-3 34 1 69-12 102-6 13-20 24-35 24-16 1-34-8-38-25-7-22-5-46 2-68 7-19 26-36 48-36h4z" style="text-align:start;line-height:125%;-inkscape-font-specification:Sans" font-size="20" font-weight="400" letter-spacing="0" word-spacing="0" fill="#222" font-family="Open Sans"/></svg>