<svg xmlns="http://www.w3.org/2000/svg" width="75" height="75"><rect id="backgroundrect" width="100%" height="100%" x="0" y="0" fill="none" stroke="none"/><g class="currentLayer" style=""><title>Layer 1</title><path d="M37.406.406c20.434 0 37 16.566 37 37s-16.566 37-37 37c-20.435 0-37-16.566-37-37s16.565-37 37-37zm24.068 50.179l-.013-25.732-15.33 10.551 15.343 15.181zM43.608 36.821l-5.456 3.656a1.395 1.395 0 0 1-1.526.001l-5.585-3.765-15.806 15.638h44.368l-15.995-15.53zM28.665 35.11L13.373 24.8v25.69l15.292-15.38zm8.722 2.531L59.599 22.72H15.272l22.115 14.921z" id="svg_1" class="selected" transform="" fill="#ffffff" fill-opacity="1"/></g></svg>