<svg xmlns="http://www.w3.org/2000/svg" xmlns:xlink="http://www.w3.org/1999/xlink" width="33" height="33" version="1.1"><rect id="backgroundrect" width="100%" height="100%" x="0" y="0" fill="none" stroke="none"/><g class="currentLayer" style=""><g stroke="none" stroke-width="1" fill="#ffffff" fill-rule="evenodd" class="selected" fill-opacity="1"><g id="GitHub-Mark" fill="#ffffff" transform="" fill-opacity="1"><path d="M 16.608 0.455002 C 7.614 0.455002 0.320007 7.748 0.320007 16.745 C 0.320007 23.942 4.987 30.047 11.46 32.201 C 12.275 32.351 12.572 31.848 12.572 31.416 C 12.572 31.03 12.558 30.005 12.55 28.646 C 8.019 29.63 7.063 26.462 7.063 26.462 C 6.32201 24.58 5.254 24.079 5.254 24.079 C 3.77499 23.069 5.366 23.089 5.366 23.089 C 7.00101 23.204 7.86099 24.768 7.86099 24.768 C 9.314 27.257 11.674 26.538 12.602 26.121 C 12.75 25.069 13.171 24.351 13.636 23.944 C 10.019 23.533 6.216 22.135 6.216 15.893 C 6.216 14.115 6.851 12.66 7.89301 11.522 C 7.72501 11.11 7.166 9.453 8.05299 7.211 C 8.05299 7.211 9.42 6.773 12.532 8.881 C 13.831 8.519 15.225 8.339 16.61 8.332 C 17.994 8.339 19.387 8.519 20.688 8.881 C 23.798 6.773 25.163 7.211 25.163 7.211 C 26.052 9.453 25.493 11.11 25.326 11.522 C 26.37 12.66 27 14.115 27 15.893 C 27 22.151 23.191 23.528 19.563 23.931 C 20.147 24.434 20.668 25.428 20.668 26.948 C 20.668 29.125 20.648 30.882 20.648 31.416 C 20.648 31.852 20.942 32.359 21.768 32.2 C 28.236 30.041 32.899 23.94 32.899 16.745 C 32.899 7.748 25.605 0.455002 16.608 0.455002" id="Fill-3" fill="#ffffff" fill-opacity="1"/></g></g></g></svg>